<svg width="20" height="16" viewBox="0 0 20 16" fill="none" xmlns="http://www.w3.org/2000/svg">
<path fill-rule="evenodd" clip-rule="evenodd" d="M1.85512 2.71494L8.61863 7.97546C9.43113 8.6074 10.5689 8.6074 11.3814 7.97546L18.1449 2.71495C17.7079 1.98707 16.9108 1.5 16 1.5H4C3.08919 1.5 2.29215 1.98707 1.85512 2.71494ZM1.5 4.33903V12C1.5 13.3807 2.61929 14.5 4 14.5H16C17.3807 14.5 18.5 13.3807 18.5 12V4.33904L12.3023 9.15949C10.9481 10.2127 9.05189 10.2127 7.69772 9.15949L1.5 4.33903ZM4 0C1.79086 0 0 1.79086 0 4V12C0 14.2091 1.79086 16 4 16H16C18.2091 16 20 14.2091 20 12V4C20 1.79086 18.2091 0 16 0H4Z" fill="#2F3642"/>
</svg>
